<?xml version="1.0" standalone="no"?>
<!DOCTYPE svg PUBLIC "-//W3C//DTD SVG 20010904//EN"
 "http://www.w3.org/TR/2001/REC-SVG-20010904/DTD/svg10.dtd">
<svg version="1.0" xmlns="http://www.w3.org/2000/svg"
 width="128.000000pt" height="128.000000pt" viewBox="0 0 128.000000 128.000000"
 preserveAspectRatio="xMidYMid meet">

<g transform="translate(0.000000,128.000000) scale(0.100000,-0.100000)"
fill="#000000" stroke="none">
<path d="M345 822 c-28 -10 -65 -28 -84 -41 -28 -20 -31 -26 -19 -37 12 -12
23 -9 73 18 52 28 70 33 130 33 74 0 113 -15 232 -85 95 -57 214 -57 339 0 61
28 80 52 50 63 -7 3 -22 0 -32 -7 -11 -8 -47 -23 -81 -36 -49 -17 -77 -21
-135 -18 -66 3 -80 8 -148 50 -124 77 -224 95 -325 60z"/>
<path d="M383 680 c-42 -9 -102 -36 -138 -64 -16 -11 -17 -17 -8 -27 10 -10
27 -6 81 19 100 46 175 45 268 -4 38 -20 92 -48 119 -63 67 -35 191 -36 277
-2 75 29 107 55 91 72 -10 10 -26 6 -80 -19 -126 -58 -218 -53 -328 18 -100
65 -195 88 -282 70z"/>
<path d="M338 511 c-25 -10 -61 -29 -78 -41 -27 -19 -30 -25 -18 -36 12 -12
22 -10 70 16 108 59 198 49 339 -35 103 -61 165 -74 254 -52 88 22 175 62 175
81 0 25 -23 23 -90 -8 -46 -22 -84 -32 -132 -34 -78 -5 -123 8 -193 55 -107
71 -231 91 -327 54z"/>
</g>
</svg>
